<?xml version="1.0" encoding="utf-8"?>
<!-- Generator: Adobe Illustrator 22.0.1, SVG Export Plug-In . SVG Version: 6.00 Build 0)  -->
<svg version="1.1" id="Layer_1" xmlns="http://www.w3.org/2000/svg" xmlns:xlink="http://www.w3.org/1999/xlink" x="0px" y="0px"
	 viewBox="0 0 14.9 71" style="enable-background:new 0 0 14.9 71;" xml:space="preserve">
<style type="text/css">
	.st0{fill:#00E5EA;}
</style>
<path class="st0" d="M12.4,62.4L9,65.8V1.5C8.9,0.7,8.3,0,7.4,0S5.9,0.7,5.9,1.5v64.4l-3.4-3.4c-0.6-0.6-1.5-0.6-2.1,0
	s-0.6,1.5,0,2.1l6,6c0.1,0.1,0.3,0.3,0.5,0.3l0,0C7.1,71,7.4,71,7.4,71s0.4,0,0.5-0.1l0,0c0.2-0.1,0.3-0.2,0.5-0.3l6-6
	c0.6-0.6,0.6-1.5,0-2.1S13,61.9,12.4,62.4z"/>
</svg>
